<?xml version="1.0" encoding="utf-8"?>
<!-- Generator: Adobe Illustrator 15.1.0, SVG Export Plug-In . SVG Version: 6.00 Build 0)  -->
<!DOCTYPE svg PUBLIC "-//W3C//DTD SVG 1.1//EN" "https://www.w3.org/Graphics/SVG/1.1/DTD/svg11.dtd">
<svg version="1.1" id="Layer_1" xmlns="https://www.w3.org/2000/svg" xmlns:xlink="https://www.w3.org/1999/xlink" x="0px" y="0px"
	 width="612px" height="792px" viewBox="0 0 612 792" enable-background="new 0 0 612 792" xml:space="preserve">
<path d="M170.05,11.252c-3.886,0.121-8.071,1.556-12.818,5.301c-11.628-4.484-22.902-6.042-32.983,3.087
	c-15.568-2.02-20.628,2.147-24.461,7.013c-3.417-0.071-25.574-3.513-35.734,11.643c-25.533-3.021-33.603,15.019-24.459,31.841
	c-5.215,8.073-10.618,16.048,1.577,31.438c-4.314,8.572-1.64,17.871,8.522,29.124c-2.682,12.05,2.59,20.551,12.045,27.177
	c-1.769,16.49,15.122,26.077,20.165,29.493c1.937,9.608,5.973,18.675,25.265,23.688c3.182,14.319,14.776,16.792,26.003,19.797
	c-37.108,21.57-68.931,49.951-68.715,119.587l-5.436,9.697c-42.55,25.875-80.833,109.043-20.969,176.642
	c3.91,21.16,10.468,36.359,16.307,53.181c8.733,67.783,65.729,99.522,80.761,103.275c22.029,16.78,45.49,32.701,77.239,43.854
	c29.929,30.868,62.353,42.632,94.955,42.612c0.478,0,0.964,0.006,1.442,0c32.602,0.021,65.024-11.743,94.954-42.612
	c31.748-11.152,55.21-27.073,77.239-43.854c15.032-3.753,72.028-35.492,80.761-103.275c5.839-16.821,12.397-32.021,16.308-53.181
	c59.862-67.604,21.581-150.777-20.97-176.653l-5.444-9.696c0.216-69.63-31.606-98.011-68.716-119.587
	c11.228-3.004,22.822-5.477,26.004-19.796c19.292-5.014,23.329-14.081,25.265-23.688c5.044-3.416,21.934-13.003,20.165-29.493
	c9.456-6.626,14.728-15.128,12.046-27.177c10.162-11.253,12.837-20.551,8.522-29.124c12.196-15.384,6.785-23.359,1.578-31.432
	c9.137-16.822,1.073-34.862-24.47-31.841c-10.156-15.156-32.307-11.714-35.731-11.643c-3.834-4.865-8.891-9.032-24.459-7.012
	c-10.082-9.129-21.355-7.571-32.983-3.087c-13.808-10.896-22.944-2.162-33.381,1.141c-16.718-5.462-20.54,2.02-28.753,5.066
	c-18.231-3.852-23.771,4.536-32.512,13.388l-10.166-0.202c-27.498,16.205-41.159,49.203-46.001,66.166
	c-4.845-16.966-18.474-49.964-45.967-66.166l-10.167,0.202c-8.75-8.853-14.291-17.24-32.522-13.388
	c-8.214-3.047-12.025-10.529-28.753-5.066c-6.85-2.167-13.149-6.672-20.567-6.442L170.05,11.252z"/>
<path fill="#75A928" d="M115.303,82.544c72.955,37.612,115.368,68.038,138.602,93.952c-11.898,47.691-73.973,49.867-96.67,48.529
	c4.647-2.163,8.525-4.754,9.9-8.735c-5.696-4.047-25.89-0.426-39.989-8.347c5.416-1.122,7.949-2.215,10.482-6.212
	c-13.32-4.248-27.667-7.909-36.106-14.947c4.554,0.056,8.806,1.019,14.752-3.106c-11.931-6.429-24.661-11.524-34.552-21.352
	c6.169-0.151,12.819-0.061,14.752-2.33c-10.919-6.765-20.132-14.289-27.759-22.517c8.632,1.042,12.277,0.145,14.365-1.359
	c-8.254-8.455-18.702-15.593-23.682-26.011c6.409,2.209,12.273,3.055,16.5-0.194c-2.805-6.328-14.822-10.06-21.741-24.847
	c6.748,0.654,13.904,1.472,15.335,0c-3.132-12.76-8.506-19.933-13.776-27.365c14.441-0.215,36.32,0.056,35.33-1.165l-8.93-9.123
	c14.106-3.798,28.54,0.61,39.018,3.882c4.705-3.713-0.083-8.407-5.824-13.2c11.988,1.601,22.82,4.356,32.611,8.153
	c5.231-4.724-3.397-9.447-7.571-14.171c18.52,3.514,26.367,8.451,34.165,13.395c5.658-5.423,0.324-10.032-3.494-14.752
	c13.964,5.172,21.157,11.849,28.73,18.44c2.567-3.465,6.522-6.004,1.747-14.365c9.915,5.715,17.382,12.449,22.906,19.994
	c6.134-3.906,3.655-9.248,3.688-14.17c10.304,8.381,16.843,17.301,24.847,26.011c1.612-1.174,3.024-5.155,4.271-11.453
	c24.582,23.849,59.317,83.917,8.929,107.733c-42.883-35.367-94.098-61.075-150.853-80.359L115.303,82.544z"/>
<path fill="#75A928" d="M502.398,82.544c-72.946,37.615-115.356,68.033-138.591,93.952c11.898,47.691,73.972,49.867,96.67,48.529
	c-4.647-2.163-8.525-4.754-9.9-8.735c5.695-4.047,25.89-0.426,39.988-8.347c-5.415-1.122-7.948-2.215-10.481-6.212
	c13.319-4.248,27.667-7.909,36.105-14.947c-4.554,0.056-8.806,1.019-14.753-3.106c11.932-6.429,24.662-11.524,34.553-21.352
	c-6.169-0.151-12.818-0.061-14.753-2.33c10.92-6.765,20.133-14.289,27.76-22.517c-8.633,1.042-12.277,0.145-14.365-1.359
	c8.254-8.455,18.701-15.593,23.683-26.011c-6.41,2.209-12.273,3.055-16.501-0.194c2.806-6.328,14.822-10.06,21.741-24.847
	c-6.747,0.654-13.904,1.472-15.335,0C551.356,72.304,556.73,65.13,562,57.698c-14.44-0.214-36.32,0.056-35.329-1.165l8.929-9.124
	c-14.105-3.798-28.539,0.61-39.018,3.882c-4.704-3.712,0.084-8.407,5.824-13.2c-11.988,1.601-22.82,4.356-32.611,8.153
	c-5.231-4.724,3.396-9.447,7.57-14.17c-18.52,3.514-26.366,8.451-34.164,13.394c-5.658-5.423-0.324-10.032,3.493-14.752
	c-13.964,5.172-21.156,11.849-28.729,18.44c-2.567-3.465-6.522-6.004-1.747-14.365c-9.914,5.715-17.382,12.45-22.905,19.994
	c-6.135-3.906-3.655-9.248-3.688-14.17c-10.304,8.382-16.843,17.301-24.848,26.011c-1.612-1.174-3.023-5.156-4.271-11.453
	c-24.582,23.849-59.316,83.917-8.929,107.733c42.86-35.375,94.071-61.08,150.831-80.364L502.398,82.544z"/>
<path fill="#BC1142" d="M397.2,568.178c0.254,44.504-38.664,80.771-86.926,81.005s-87.592-35.652-87.846-80.155
	c-0.001-0.283-0.001-0.566,0-0.85c-0.254-44.503,38.664-80.771,86.925-81.005s87.592,35.652,87.847,80.156
	C397.201,567.611,397.201,567.895,397.2,568.178z"/>
<path fill="#BC1142" d="M259.25,337.985c36.209,23.723,42.736,77.495,14.579,120.104s-80.336,57.92-116.545,34.197l0,0
	c-36.208-23.723-42.736-77.496-14.579-120.105C170.862,329.573,223.041,314.263,259.25,337.985L259.25,337.985z"/>
<path fill="#BC1142" d="M356.98,333.69c-36.209,23.723-42.736,77.495-14.579,120.104s80.336,57.92,116.545,34.197l0,0
	c36.209-23.723,42.736-77.496,14.579-120.104C445.368,325.278,393.189,309.968,356.98,333.69L356.98,333.69z"/>
<path fill="#BC1142" d="M78.282,376.771c39.093-10.479,13.198,161.729-18.61,147.6C24.684,496.229,13.415,413.812,78.282,376.771z"
	/>
<path fill="#BC1142" d="M530.057,374.623c-39.098-10.476-13.198,161.739,18.61,147.61
	C583.654,494.089,594.924,411.665,530.057,374.623L530.057,374.623z"/>
<path fill="#BC1142" d="M397.23,246.382c67.466-11.392,123.604,28.691,121.338,101.848
	C516.349,376.275,372.375,250.558,397.23,246.382z"/>
<path fill="#BC1142" d="M210.829,244.235c-67.47-11.392-123.603,28.7-121.337,101.85
	C91.711,374.129,235.685,248.411,210.829,244.235z"/>
<path fill="#BC1142" d="M307.739,227.174c-40.266-1.047-78.91,29.885-79.004,47.826c-0.112,21.8,31.836,44.121,79.277,44.687
	c48.448,0.347,79.363-17.866,79.519-40.364C387.708,253.833,343.469,226.78,307.739,227.174L307.739,227.174z"/>
<path fill="#BC1142" d="M310.198,674.213c35.106-1.532,82.213,11.309,82.306,28.341c0.582,16.54-42.723,53.911-84.635,53.188
	c-43.406,1.872-85.969-35.557-85.412-48.529C221.808,688.191,275.311,673.34,310.198,674.213L310.198,674.213z"/>
<path fill="#BC1142" d="M180.529,573.266c24.994,30.112,36.388,83.016,15.53,98.611c-19.733,11.904-67.655,7.002-101.717-41.93
	c-22.971-41.06-20.011-82.843-3.882-95.117C114.58,520.139,151.846,539.983,180.529,573.266L180.529,573.266z"/>
<path fill="#BC1142" d="M434.863,563.721c-27.043,31.676-42.101,89.448-22.373,108.055c18.862,14.457,69.498,12.436,106.902-39.464
	c27.16-34.857,18.06-93.069,2.546-108.528c-23.046-17.825-56.13,4.987-87.075,39.929V563.721z"/>
</svg>
